<svg width="27" height="28" viewBox="0 0 27 28" fill="none" xmlns="http://www.w3.org/2000/svg">
<path fill-rule="evenodd" clip-rule="evenodd" d="M12.5246 2.13172C12.9218 1.82277 13.4781 1.82277 13.8753 2.13172L23.7753 9.83172C24.0432 10.0401 24.2 10.3606 24.2 10.7V22.8C24.2 23.6752 23.8523 24.5146 23.2334 25.1335C22.6145 25.7523 21.7752 26.1 20.9 26.1H5.49995C4.62474 26.1 3.78537 25.7523 3.1665 25.1335C2.54763 24.5146 2.19995 23.6752 2.19995 22.8V10.7C2.19995 10.3606 2.35667 10.0401 2.62462 9.83172L12.5246 2.13172ZM4.39995 11.238V22.8C4.39995 23.0917 4.51584 23.3715 4.72213 23.5778C4.92842 23.7841 5.20821 23.9 5.49995 23.9H20.9C21.1917 23.9 21.4715 23.7841 21.6778 23.5778C21.8841 23.3715 22 23.0917 22 22.8V11.238L13.2 4.39356L4.39995 11.238Z" fill="url(#paint0_linear_2_750)"/>
<path fill-rule="evenodd" clip-rule="evenodd" d="M8.80005 14C8.80005 13.3925 9.29254 12.9 9.90005 12.9H16.5C17.1076 12.9 17.6 13.3925 17.6 14V25C17.6 25.6075 17.1076 26.1 16.5 26.1C15.8925 26.1 15.4 25.6075 15.4 25V15.1H11V25C11 25.6075 10.5076 26.1 9.90005 26.1C9.29254 26.1 8.80005 25.6075 8.80005 25V14Z" fill="url(#paint1_linear_2_750)"/>
<defs>
<linearGradient id="paint0_linear_2_750" x1="13.2" y1="1.90001" x2="13.2" y2="26.1" gradientUnits="userSpaceOnUse">
<stop stop-color="#5B80DF"/>
<stop offset="1" stop-color="#6765B8"/>
</linearGradient>
<linearGradient id="paint1_linear_2_750" x1="13.2" y1="12.9" x2="13.2" y2="26.1" gradientUnits="userSpaceOnUse">
<stop stop-color="#5B80DF"/>
<stop offset="1" stop-color="#6765B8"/>
</linearGradient>
</defs>
</svg>
