<svg width="28" height="28" viewBox="0 0 28 28" fill="none" xmlns="http://www.w3.org/2000/svg">
<path fill-rule="evenodd" clip-rule="evenodd" d="M13.2008 0.800003H14.6792C21.5611 0.800003 27.14 6.37889 27.14 13.2608V14.7392C27.14 21.6211 21.5611 27.2 14.6792 27.2H13.2008C6.31888 27.2 0.73999 21.6211 0.73999 14.7392V13.2608C0.73999 6.37889 6.31888 0.800003 13.2008 0.800003ZM14.6792 25.22C20.4496 25.1769 25.1169 20.5096 25.16 14.7392V13.2608C25.1169 7.49037 20.4496 2.82312 14.6792 2.78H13.2008C7.43036 2.82312 2.76311 7.49037 2.71999 13.2608V14.7392C2.76311 20.5096 7.43036 25.1769 13.2008 25.22H14.6792Z" fill="url(#paint0_linear_2_824)"/>
<path d="M19.22 13.01H14.93V8.72C14.93 8.17324 14.4868 7.73 13.94 7.73C13.3932 7.73 12.95 8.17324 12.95 8.72V13.01H8.65999C8.11323 13.01 7.66999 13.4532 7.66999 14C7.66999 14.5468 8.11323 14.99 8.65999 14.99H12.95V19.28C12.95 19.8268 13.3932 20.27 13.94 20.27C14.4868 20.27 14.93 19.8268 14.93 19.28V14.99H19.22C19.7668 14.99 20.21 14.5468 20.21 14C20.21 13.4532 19.7668 13.01 19.22 13.01Z" fill="url(#paint1_linear_2_824)"/>
<defs>
<linearGradient id="paint0_linear_2_824" x1="13.94" y1="0.800003" x2="13.94" y2="27.2" gradientUnits="userSpaceOnUse">
<stop stop-color="#5B80DF"/>
<stop offset="1" stop-color="#6765B8"/>
</linearGradient>
<linearGradient id="paint1_linear_2_824" x1="13.94" y1="0.800003" x2="13.94" y2="27.2" gradientUnits="userSpaceOnUse">
<stop stop-color="#5B80DF"/>
<stop offset="1" stop-color="#6765B8"/>
</linearGradient>
</defs>
</svg>
